<svg width="16px" height="16px" viewBox="0 0 48 48" version="1.1" xmlns="http://www.w3.org/2000/svg" xmlns:xlink="http://www.w3.org/1999/xlink">
    <title>Group 56</title>
    <g id="Page-1" stroke="none" stroke-width="1" fill="none" fill-rule="evenodd">
        <g id="Group-56">
            <rect id="Rectangle" fill="#000000" x="0" y="0" width="48" height="48"></rect>
            <g id="Group-42">
                <rect id="Rectangle" x="0" y="0" width="48" height="48"></rect>
                <g id="TET-logo-icon" transform="translate(7.000000, 1.000000)" fill="#FFFFFF">
                    <g id="&lt;Group&gt;" transform="translate(0.000000, 13.000000)">
                        <g transform="translate(4.908577, 0.785714)" fill-rule="nonzero" id="&lt;Path&gt;">
                            <path d="M0,9.57823129 L0,0 C0.605089538,0 1.09142319,0.498866213 1.09142319,1.10997732 L1.09142319,8.4744898 C1.09142319,9.08560091 0.605089538,9.57823129 0,9.57823129 Z"></path>
                        </g>
                        <g id="&lt;Compound-Path&gt;">
                            <path d="M3.72667295,11 C1.66823751,11 0,9.30385488 0,7.22108844 L0,3.77891156 C0,1.6899093 1.66823751,0 3.72667295,0 L3.72667295,0 C4.07163054,0 4.34872762,0.280612245 4.34872762,0.629818594 L4.34872762,10.3639456 C4.34872762,10.7131519 4.07163054,11 3.72667295,11 Z M3.10461828,1.34693878 C2.03581527,1.62755102 1.24976437,2.61281179 1.24976437,3.77891156 L1.24976437,7.22108844 C1.24976437,8.38718821 2.03581527,9.37244898 3.10461828,9.65306122 L3.10461828,1.34693878 Z"></path>
                        </g>
                    </g>
                    <g id="&lt;Group&gt;" transform="translate(28.000000, 13.000000)">
                        <g transform="translate(0.000000, 0.785714)" fill-rule="nonzero" id="&lt;Path&gt;">
                            <path d="M0,8.4744898 L0,1.10997732 C0,0.498866213 0.49198869,0 1.09142319,0 L1.09142319,9.57823129 C0.49198869,9.57823129 0,9.08560091 0,8.4744898 Z"></path>
                        </g>
                        <g transform="translate(1.651272, 0.000000)" id="&lt;Compound-Path&gt;">
                            <path d="M0.627709708,11 L0.627709708,11 C0.282752121,11 0,10.7131519 0,10.3639456 L0,0.629818594 C0,0.280612245 0.282752121,0 0.627709708,0 C2.6804901,0 4.34872762,1.6899093 4.34872762,3.77891156 L4.34872762,7.22108844 C4.34872762,9.30385488 2.6804901,11 0.627709708,11 Z M1.24976437,1.34693878 L1.24976437,9.65306122 C2.31291235,9.37244898 3.10461828,8.38718821 3.10461828,7.22108844 L3.10461828,3.77891156 C3.10461828,2.61281179 2.31291235,1.62755102 1.24976437,1.34693878 Z"></path>
                        </g>
                    </g>
                    <g id="&lt;Group&gt;" transform="translate(4.000000, 7.000000)" fill-rule="nonzero">
                        <g id="&lt;Compound-Path&gt;-copy-2">
                            <path d="M11.8623571,39 L11.8623571,32.414248 C5.26605101,32.0934347 0,26.8272544 0,20.4109887 C0,20.0538569 0.28583993,19.763309 0.63764292,19.763309 C0.98944591,19.763309 1.27528584,20.0538569 1.27528584,20.4109887 C1.27528584,26.3248487 6.31046614,31.137048 12.5,31.137048 C18.6840369,31.137048 23.7192172,26.3248487 23.7192172,20.4109887 C23.7192172,20.0538569 24.0050572,19.763309 24.3568602,19.763309 C24.7086631,19.763309 25,20.0538569 25,20.4109887 C25,26.8272544 19.733949,32.0934347 13.1376429,32.414248 L13.1376429,39 M12.5,28.3526308 C7.69569041,28.3526308 3.78737907,24.5452429 3.59498681,19.684619 C3.58399296,19.3274872 3.85334213,19.0308862 4.21064204,19.012727 C4.55694811,18.9582493 4.8592788,19.2790625 4.87027265,19.6361943 C5.0351803,23.7946609 8.38280563,27.0572715 12.5,27.0572715 C16.3863237,27.0572715 19.5965259,24.1457396 20.0692612,20.3080863 L8.75109938,20.3080863 C8.39929639,20.3080863 8.11345646,20.0175384 8.11345646,19.6604066 C8.11345646,19.3032749 8.39929639,19.012727 8.75109938,19.012727 L20.7288918,19.012727 C21.1411609,19.0308862 21.421504,19.2669564 21.3995163,19.7814683 C21.1631486,24.5936675 17.2713281,28.3526308 12.5,28.3526308 Z M20.7728672,16.767034 L4.32058047,16.767034 C3.96877748,16.767034 3.68293755,16.4764861 3.68293755,16.1193543 C3.68293755,15.7622226 3.96877748,15.4716747 4.32058047,15.4716747 L20.7728672,15.4716747 C21.1246702,15.4716747 21.4105101,15.7622226 21.4105101,16.1193543 C21.4105101,16.4764861 21.1246702,16.767034 20.7728672,16.767034 Z M20.7728672,13.2199286 L4.32058047,13.2199286 C3.96877748,13.2199286 3.68293755,12.9293807 3.68293755,12.572249 C3.68293755,12.2151172 3.96877748,11.9245693 4.32058047,11.9245693 L20.7728672,11.9245693 C21.1246702,11.9245693 21.4105101,12.2151172 21.4105101,12.572249 C21.4105101,12.9293807 21.1246702,13.2199286 20.7728672,13.2199286 Z M20.7728672,9.67282322 C20.4155673,9.67282322 20.1297274,9.38227534 20.1297274,9.02514357 C20.1297274,4.76377464 16.7051451,1.2953593 12.5,1.2953593 C8.50373791,1.2953593 5.21657872,4.41874903 4.89226033,8.383517 L16.2434037,8.383517 C16.5952067,8.383517 16.8810466,8.6680118 16.8810466,9.02514357 C16.8810466,9.38227534 16.5952067,9.67282322 16.2434037,9.67282322 L4.22713281,9.67282322 C3.87532982,9.67282322 3.58948989,9.38227534 3.58948989,9.02514357 C3.58948989,4.0495111 7.58575198,0 12.5,0 C17.414248,0 21.4105101,4.0495111 21.4105101,9.02514357 C21.4105101,9.38227534 21.1246702,9.67282322 20.7728672,9.67282322 Z"></path>
                        </g>
                    </g>
                    <g id="&lt;Group&gt;" transform="translate(5.000000, 0.000000)" fill-rule="nonzero">
                        <path d="M24.4142528,11 L24.370552,11 C24.0646463,11 23.8133666,10.7737598 23.7860536,10.4853036 C23.5293113,7.64598926 21.1803925,1.34520013 12.5877197,1.15289597 C9.28830814,1.07936791 6.55700719,2.02392068 4.47575587,3.95827426 C2.30710292,5.9774679 1.3784606,8.60185404 1.20911994,10.1911913 C1.17634433,10.4796476 0.930527242,10.7002318 0.630084138,10.7002318 L0.586383323,10.7002318 C0.247702005,10.7002318 -0.0254280893,10.4230875 0.00188492012,10.1006953 C0.20400119,8.09281363 1.35661019,5.25349931 3.63451518,3.13815359 C5.95612098,0.977559826 8.96601463,-0.0801130369 12.6150327,0.00472703227 C21.2295559,0.197031189 24.6928455,6.24895613 24.9987512,10.4061195 C25.0206016,10.7285118 24.7529341,11 24.4142528,11 Z" id="&lt;Path&gt;"></path>
                    </g>
                </g>
            </g>
        </g>
    </g>
</svg>