<svg width="33" height="37" viewBox="0 0 33 37" fill="none" xmlns="http://www.w3.org/2000/svg">
<path fill-rule="evenodd" clip-rule="evenodd" d="M27.5 26.1712C26.1067 26.1712 24.8508 26.7191 23.8975 27.6014L10.835 19.8838C10.9358 19.4659 11 19.0294 11 18.5836C11 18.1378 10.9358 17.7013 10.835 17.2834L23.76 9.64006C24.7408 10.5688 26.0517 11.1446 27.5 11.1446C30.5342 11.1446 33 8.64633 33 5.57229C33 2.49824 30.5342 0 27.5 0C24.4658 0 22 2.49824 22 5.57229C22 6.01807 22.0642 6.45457 22.165 6.87249L9.24 14.5158C8.25917 13.5871 6.94833 13.0113 5.5 13.0113C2.46583 13.0113 0 15.5095 0 18.5836C0 21.6576 2.46583 24.1559 5.5 24.1559C6.94833 24.1559 8.25917 23.5801 9.24 22.6514L22.3025 30.369C22.2108 30.759 22.1558 31.1677 22.1558 31.5856C22.1558 34.5761 24.5483 37 27.5 37C30.4517 37 32.8442 34.5761 32.8442 31.5856C32.8442 28.5951 30.4517 26.1712 27.5 26.1712Z" fill="white"/>
</svg>
