<svg width="349px" height="110px" viewBox="0 0 349 110" version="1.1" xmlns="http://www.w3.org/2000/svg" xmlns:xlink="http://www.w3.org/1999/xlink">
	<title>Group 43</title>
	<g id="Page-1" stroke="none" stroke-width="1" fill="none" fill-rule="evenodd">
		<g id="Group-43" fill="#FFFFFF">
			<g id="TET-logo-icon">
				<g id="&lt;Group&gt;" transform="translate(0.000000, 31.000000)">
					<g transform="translate(11.453346, 1.857143)" fill-rule="nonzero" id="&lt;Path&gt;">
						<path d="M0,22.6394558 L0,0 C1.41187559,0 2.5466541,1.17913832 2.5466541,2.62358277 L2.5466541,20.0306122 C2.5466541,21.4750567 1.41187559,22.6394558 0,22.6394558 Z"></path>
					</g>
					<g id="&lt;Compound-Path&gt;">
						<path d="M8.69557022,26 C3.89255419,26 0,21.9909297 0,17.0680272 L0,8.93197279 C0,3.99433107 3.89255419,0 8.69557022,0 L8.69557022,0 C9.50047125,0 10.1470311,0.663265306 10.1470311,1.48866213 L10.1470311,24.4965986 C10.1470311,25.3219955 9.50047125,26 8.69557022,26 Z M7.24410933,3.18367347 C4.75023563,3.84693878 2.91611687,6.17573696 2.91611687,8.93197279 L2.91611687,17.0680272 C2.91611687,19.824263 4.75023563,22.1530612 7.24410933,22.8163265 L7.24410933,3.18367347 Z"></path>
					</g>
				</g>
				<g id="&lt;Group&gt;" transform="translate(67.000000, 31.000000)">
					<g transform="translate(0.000000, 1.857143)" fill-rule="nonzero" id="&lt;Path&gt;">
						<path d="M0,20.0306122 L0,2.62358277 C0,1.17913832 1.14797361,0 2.5466541,0 L2.5466541,22.6394558 C1.14797361,22.6394558 0,21.4750567 0,20.0306122 Z"></path>
					</g>
					<g transform="translate(3.852969, 0.000000)" id="&lt;Compound-Path&gt;">
						<path d="M1.46465598,26 L1.46465598,26 C0.659754948,26 0,25.3219955 0,24.4965986 L0,1.48866213 C0,0.663265306 0.659754948,0 1.46465598,0 C6.25447691,0 10.1470311,3.99433107 10.1470311,8.93197279 L10.1470311,17.0680272 C10.1470311,21.9909297 6.25447691,26 1.46465598,26 Z M2.91611687,3.18367347 L2.91611687,22.8163265 C5.39679548,22.1530612 7.24410933,19.824263 7.24410933,17.0680272 L7.24410933,8.93197279 C7.24410933,6.17573696 5.39679548,3.84693878 2.91611687,3.18367347 Z"></path>
					</g>
				</g>
				<g id="&lt;Group&gt;" transform="translate(11.000000, 16.000000)" fill-rule="nonzero">
					<g id="&lt;Compound-Path&gt;-copy-2">
						<path d="M27.9951627,94 L27.9951627,78.1266491 C12.4278804,77.3534068 0,64.6605619 0,49.1957163 C0,48.3349371 0.674582234,47.6346422 1.50483729,47.6346422 C2.33509235,47.6346422 3.00967458,48.3349371 3.00967458,49.1957163 C3.00967458,63.4496353 14.8927001,75.0482694 29.5,75.0482694 C44.0943272,75.0482694 55.9773527,63.4496353 55.9773527,49.1957163 C55.9773527,48.3349371 56.6519349,47.6346422 57.48219,47.6346422 C58.312445,47.6346422 59,48.3349371 59,49.1957163 C59,64.6605619 46.5721196,77.3534068 31.0048373,78.1266491 L31.0048373,94 M29.5,68.33711 C18.1618294,68.33711 8.9382146,59.160329 8.48416887,47.444979 C8.45822339,46.5841999 9.09388742,45.8693155 9.93711522,45.8255471 C10.7543975,45.6942418 11.467898,46.4674841 11.4938434,47.3282632 C11.8830255,57.3512339 19.7834213,65.214962 29.5,65.214962 C38.6717238,65.214962 46.2478012,58.1974236 47.3634565,48.9476952 L20.6525945,48.9476952 C19.8223395,48.9476952 19.1477573,48.2474003 19.1477573,47.3866211 C19.1477573,46.525842 19.8223395,45.8255471 20.6525945,45.8255471 L48.9201847,45.8255471 C49.8931398,45.8693155 50.5547493,46.4383051 50.5028584,47.6784107 C49.9450308,59.2770449 40.7603342,68.33711 29.5,68.33711 Z M49.0239666,40.4128512 L10.1965699,40.4128512 C9.36631486,40.4128512 8.69173263,39.7125563 8.69173263,38.8517771 C8.69173263,37.990998 9.36631486,37.2907031 10.1965699,37.2907031 L49.0239666,37.2907031 C49.8542216,37.2907031 50.5288039,37.990998 50.5288039,38.8517771 C50.5288039,39.7125563 49.8542216,40.4128512 49.0239666,40.4128512 Z M49.0239666,31.8634177 L10.1965699,31.8634177 C9.36631486,31.8634177 8.69173263,31.1631228 8.69173263,30.3023436 C8.69173263,29.4415645 9.36631486,28.7412696 10.1965699,28.7412696 L49.0239666,28.7412696 C49.8542216,28.7412696 50.5288039,29.4415645 50.5288039,30.3023436 C50.5288039,31.1631228 49.8542216,31.8634177 49.0239666,31.8634177 Z M49.0239666,23.3139842 C48.1807388,23.3139842 47.5061566,22.6136893 47.5061566,21.7529101 C47.5061566,11.4819184 39.4241425,3.12214807 29.5,3.12214807 C20.0688215,3.12214807 12.3111258,10.6503182 11.5457344,20.2064256 L38.3344327,20.2064256 C39.1646878,20.2064256 39.83927,20.892131 39.83927,21.7529101 C39.83927,22.6136893 39.1646878,23.3139842 38.3344327,23.3139842 L9.97603342,23.3139842 C9.14577836,23.3139842 8.47119613,22.6136893 8.47119613,21.7529101 C8.47119613,9.76036008 17.9023747,0 29.5,0 C41.0976253,0 50.5288039,9.76036008 50.5288039,21.7529101 C50.5288039,22.6136893 49.8542216,23.3139842 49.0239666,23.3139842 Z"></path>
					</g>
				</g>
				<g id="&lt;Group&gt;" transform="translate(12.000000, 0.000000)" fill-rule="nonzero">
					<path d="M57.6176366,28 L57.5145026,28 C56.7925652,28 56.1995451,27.4241159 56.1350864,26.6898637 C55.5291746,19.4625181 49.9857262,3.42414577 29.7070185,2.93464428 C21.9204072,2.74748195 15.474537,5.15179809 10.5627839,10.0756072 C5.44476289,15.2153728 3.25316701,21.8956285 2.85352306,25.9412143 C2.77617261,26.6754666 2.19604429,27.2369536 1.48699857,27.2369536 L1.38386464,27.2369536 C0.584576733,27.2369536 -0.0600102909,26.5314955 0.00444841149,25.7108607 C0.481442809,20.5998892 3.20160005,13.3725437 8.57745582,7.98802731 C14.0564455,2.4883341 21.1597945,-0.203924094 29.7714772,0.0120324458 C50.1017519,0.501533936 58.2751153,15.9064338 58.9970528,26.4883042 C59.0486198,27.3089391 58.4169245,28 57.6176366,28 Z" id="&lt;Path&gt;"></path>
				</g>
			</g>
			<text id="TALKEARN" font-family="Futura-Medium, Futura" font-size="50" font-weight="400" letter-spacing="-0.0669642857">
				<tspan x="97.2546735" y="75">TALKEARN</tspan>
			</text>
		</g>
	</g>
</svg>