<svg width="26" height="22" viewBox="0 0 26 22" fill="none" xmlns="http://www.w3.org/2000/svg">
    <path d="M26 3.37591C25.0331 3.80003 24.0029 4.08116 22.9287 4.21766C24.0337 3.55791 24.8771 2.52116 25.2736 1.27153C24.2434 1.88578 23.1059 2.31966 21.8936 2.56178C20.9154 1.52016 19.5211 0.875031 18.0001 0.875031C15.0491 0.875031 12.6734 3.27028 12.6734 6.20666C12.6734 6.62916 12.7091 7.03541 12.7969 7.42216C8.3655 7.20603 4.44438 5.08216 1.81025 1.84678C1.35037 2.64466 1.08063 3.55791 1.08063 4.54103C1.08063 6.38703 2.03125 8.02341 3.44825 8.97078C2.59187 8.95453 1.75175 8.70591 1.04 8.31428C1.04 8.33053 1.04 8.35166 1.04 8.37278C1.04 10.963 2.88762 13.1145 5.3105 13.6102C4.87663 13.7288 4.40375 13.7857 3.913 13.7857C3.57175 13.7857 3.22725 13.7662 2.90387 13.6947C3.5945 15.8055 5.55425 17.3574 7.8845 17.4078C6.071 18.8264 3.76838 19.6812 1.27562 19.6812C0.8385 19.6812 0.41925 19.6617 0 19.608C2.36112 21.1307 5.15938 22 8.177 22C17.9855 22 23.348 13.875 23.348 6.83228C23.348 6.59666 23.3399 6.36916 23.3285 6.14328C24.3864 5.39253 25.2752 4.45491 26 3.37591Z" fill="white" />
</svg>
