<svg width="56" height="50" viewBox="0 0 56 50" fill="none" xmlns="http://www.w3.org/2000/svg">
<path d="M18.3333 14.4444L14.1666 18.3333L27.7777 31.6667L55.5555 3.88889L51.6666 0L27.7777 23.8889L18.3333 14.4444Z" fill="#ffffff"/>
<path d="M44.1667 22.5C44.4444 23.3333 44.4444 24.1667 44.4444 25C44.4444 35.8333 35.8333 44.4444 25 44.4444C14.1667 44.4444 5.55556 35.8333 5.55556 25C5.55556 14.1667 14.1667 5.55556 25 5.55556C28.3333 5.55556 31.6667 6.38889 34.7222 8.05556L37.5 3.33333C33.6111 1.11111 29.4444 0 25 0C11.1111 0 0 11.1111 0 25C0 38.8889 11.1111 50 25 50C38.8889 50 50 38.8889 50 25C50 23.8889 50 23.0556 49.7222 21.9444L44.1667 22.5Z" fill="#ffffff"/>
</svg>
